<svg viewBox="0 0 1440 320" xmlns="http://www.w3.org/2000/svg">
  <defs>
    <linearGradient id="waveGradient" x1="0%" y1="0%" x2="100%" y2="0%">
      <stop offset="0%" style="stop-color:hsl(var(--primary));stop-opacity:1" />
      <stop offset="50%" style="stop-color:hsl(var(--accent));stop-opacity:1" />
      <stop offset="100%" style="stop-color:hsl(var(--destructive));stop-opacity:1" />
    </linearGradient>
  </defs>
  <path fill="url(#waveGradient)" fill-opacity="0.1" d="M0,192L48,176C96,160,192,128,288,133.3C384,139,480,181,576,186.7C672,192,768,160,864,138.7C960,117,1056,107,1152,117.3C1248,128,1344,160,1392,176L1440,192L1440,320L1392,320C1344,320,1248,320,1152,320C1056,320,960,320,864,320C768,320,672,320,576,320C480,320,384,320,288,320C192,320,96,320,48,320L0,320Z"></path>
  <path class="svg-wave-path" stroke="url(#waveGradient)" stroke-width="2" fill="none" d="M0,192L48,176C96,160,192,128,288,133.3C384,139,480,181,576,186.7C672,192,768,160,864,138.7C960,117,1056,107,1152,117.3C1248,128,1344,160,1392,176L1440,192">
    <animate attributeName="d" values="M0,192L48,176C96,160,192,128,288,133.3C384,139,480,181,576,186.7C672,192,768,160,864,138.7C960,117,1056,107,1152,117.3C1248,128,1344,160,1392,176L1440,192;
                                          M0,160L48,181.3C96,203,192,245,288,250.7C384,256,480,224,576,197.3C672,171,768,149,864,160C960,171,1056,213,1152,213.3C1248,213,1344,171,1392,149.3L1440,128;
                                          M0,192L48,176C96,160,192,128,288,133.3C384,139,480,181,576,186.7C672,192,768,160,864,138.7C960,117,1056,107,1152,117.3C1248,128,1344,160,1392,176L1440,192"
             dur="10s" repeatCount="indefinite"/>
  </path>
</svg>
